<svg width="20" height="21" viewBox="0 0 20 21" fill="none" xmlns="http://www.w3.org/2000/svg">
<path d="M19.997 17.762C19.9958 17.4719 19.931 17.1857 19.8071 16.9234C19.6832 16.6611 19.5033 16.4292 19.28 16.244C17.6071 14.8916 15.8035 13.7094 13.896 12.715L12.454 20.58H20L19.997 17.762ZM6.137 8.87C6.22812 9.40481 6.4144 9.91894 6.687 10.388V11.745L9.678 13.928L8.567 15.358L9.323 16.573L8.723 20.578H11.28L10.694 16.578L11.45 15.363L10.32 13.93L13.32 11.75V10.391C13.5926 9.92194 13.7789 9.40781 13.87 8.873C14.086 8.855 14.37 8.551 14.678 7.467C15.078 6.034 14.678 5.782 14.314 5.797C15.225 1.597 12.872 1.585 12.872 1.585C12.6861 1.06221 12.3232 0.620892 11.8462 0.33746C11.3692 0.0540269 10.8081 -0.053675 10.26 0.0330009C9.07324 0.156934 7.87626 0.145862 6.692 0C6.69038 0.166264 6.72538 0.330847 6.79451 0.482067C6.86364 0.633287 6.96521 0.767437 7.092 0.875C4.98 2.159 5.466 4.991 5.654 5.806C5.296 5.806 4.922 6.082 5.317 7.476C5.627 8.548 5.91 8.852 6.137 8.87ZM6.104 12.715C4.19608 13.7045 2.3915 14.8817 0.717 16.229C0.493866 16.4141 0.314025 16.6458 0.190145 16.9079C0.066265 17.17 0.00135943 17.4561 0 17.746V20.579H7.546L6.104 12.715Z" fill="#7F8F98"/>
</svg>
